<?xml version="1.0" standalone="no"?>
<!DOCTYPE svg PUBLIC "-//W3C//DTD SVG 20010904//EN" "http://www.w3.org/TR/2001/REC-SVG-20010904/DTD/svg10.dtd">
<!-- Created using Krita: https://krita.org -->
<svg xmlns="http://www.w3.org/2000/svg" 
    xmlns:xlink="http://www.w3.org/1999/xlink"
    xmlns:krita="http://krita.org/namespaces/svg/krita"
    xmlns:sodipodi="http://sodipodi.sourceforge.net/DTD/sodipodi-0.dtd"
    width="360pt"
    height="480pt"
    viewBox="0 0 360 480">
<defs/>
<path id="shape0" transform="translate(93.3000012226089, 278.647549988139)" fill="#2b0000" fill-rule="evenodd" stroke="#2d0004" stroke-width="0.48" stroke-linecap="square" stroke-linejoin="bevel" d="M0 13.8025C4.51705 12.2658 7.19671 9.65345 16.9069 7.48053C18.3789 4.96117 16.6806 0.0964702 16.89 0.00245034C17.182 -0.12869 24.4021 5.0482 26.0017 4.922C42.3164 3.63483 61.4915 9.57403 61.5 14.2525C52.6367 13.3733 54.5272 15.4765 32.13 14.9125C28.3663 14.8177 11.4068 13.1005 0 13.8025Z" sodipodi:nodetypes="ccsscsc"/><path id="shape01" transform="matrix(-1 0 0 1 266.699998777391 278.647549988139)" fill="#2b0000" fill-rule="evenodd" stroke="#2d0004" stroke-width="0.48" stroke-linecap="square" stroke-linejoin="bevel" d="M0 13.8025C4.51705 12.2658 7.19671 9.65345 16.9069 7.48053C18.3789 4.96117 16.6806 0.0964702 16.89 0.00245034C17.182 -0.12869 24.4021 5.0482 26.0017 4.922C42.3164 3.63483 61.4915 9.57403 61.5 14.2525C52.6367 13.3733 54.5272 15.4765 32.13 14.9125C28.3663 14.8177 11.4068 13.1005 0 13.8025Z" sodipodi:nodetypes="ccsscsc"/>
</svg>
