<?xml version="1.0" standalone="no"?>
<!DOCTYPE svg PUBLIC "-//W3C//DTD SVG 20010904//EN" "http://www.w3.org/TR/2001/REC-SVG-20010904/DTD/svg10.dtd">
<!-- Created using Krita: https://krita.org -->
<svg xmlns="http://www.w3.org/2000/svg" 
    xmlns:xlink="http://www.w3.org/1999/xlink"
    xmlns:krita="http://krita.org/namespaces/svg/krita"
    xmlns:sodipodi="http://sodipodi.sourceforge.net/DTD/sodipodi-0.dtd"
    width="360pt"
    height="480pt"
    viewBox="0 0 360 480">
<defs/>
<path id="shape0" transform="translate(89.9771597511732, 233.73000032723)" fill="#2b0000" fill-rule="evenodd" stroke="#2d0004" stroke-width="0.48" stroke-linecap="square" stroke-linejoin="bevel" d="M5.06284 58.35C1.89989 52.7933 -9.40045 24.051 17.4697 7.83808C18.8217 7.23872 18.1043 1.74382 17.5728 0C18.8982 2.17002 25.115 5.25294 26.6845 4.91955C55.2392 -1.14606 62.4743 19.3564 62.4828 24.03C58.433 15.458 43.8622 5.74916 24.8028 13.95C4.18167 22.8228 1.73968 47.868 5.06284 58.35Z" sodipodi:nodetypes="cccccsc"/><path id="shape1" transform="matrix(-1 0 0 1 270.022840248827 233.73000032723)" fill="#2b0000" fill-rule="evenodd" stroke="#2d0004" stroke-width="0.48" stroke-linecap="square" stroke-linejoin="bevel" d="M5.06284 58.35C1.89989 52.7933 -9.40045 24.051 17.4697 7.83808C18.8217 7.23872 18.1043 1.74382 17.5728 0C18.8982 2.17002 25.115 5.25294 26.6845 4.91955C55.2392 -1.14606 62.4743 19.3564 62.4828 24.03C58.433 15.458 43.8622 5.74916 24.8028 13.95C4.18167 22.8228 1.73968 47.868 5.06284 58.35Z" sodipodi:nodetypes="cccccsc"/>
</svg>
